<svg xmlns="http://www.w3.org/2000/svg" xmlns:xlink="http://www.w3.org/1999/xlink" width="250" zoomAndPan="magnify" viewBox="0 0 187.5 89.999999" height="120" preserveAspectRatio="xMidYMid meet" version="1.0"><defs><filter x="0%" y="0%" width="100%" height="100%" id="1a1fa58750"><feColorMatrix values="0 0 0 0 1 0 0 0 0 1 0 0 0 0 1 0 0 0 1 0" color-interpolation-filters="sRGB"/></filter><clipPath id="8fa9dbf19a"><path d="M 128 7 L 161 7 L 161 29 L 128 29 Z M 128 7 " clip-rule="nonzero"/></clipPath><clipPath id="bdc20d7d71"><path d="M 139.710938 -2.882812 L 199.613281 29.445312 L 165.152344 93.296875 L 105.25 60.96875 Z M 139.710938 -2.882812 " clip-rule="nonzero"/></clipPath><clipPath id="b0c13ddb6a"><path d="M 139.710938 -2.882812 L 199.613281 29.445312 L 165.152344 93.296875 L 105.25 60.96875 Z M 139.710938 -2.882812 " clip-rule="nonzero"/></clipPath><clipPath id="80201cd591"><path d="M 126 59 L 157 59 L 157 86 L 126 86 Z M 126 59 " clip-rule="nonzero"/></clipPath><clipPath id="bd611305de"><path d="M 139.710938 -2.882812 L 199.613281 29.445312 L 165.152344 93.296875 L 105.25 60.96875 Z M 139.710938 -2.882812 " clip-rule="nonzero"/></clipPath><clipPath id="696df6664f"><path d="M 139.710938 -2.882812 L 199.613281 29.445312 L 165.152344 93.296875 L 105.25 60.96875 Z M 139.710938 -2.882812 " clip-rule="nonzero"/></clipPath><clipPath id="238ed24642"><path d="M 117 34 L 178 34 L 178 89 L 117 89 Z M 117 34 " clip-rule="nonzero"/></clipPath><clipPath id="52031ec1c3"><path d="M 139.710938 -2.882812 L 199.613281 29.445312 L 165.152344 93.296875 L 105.25 60.96875 Z M 139.710938 -2.882812 " clip-rule="nonzero"/></clipPath><clipPath id="69d9a41579"><path d="M 139.710938 -2.882812 L 199.613281 29.445312 L 165.152344 93.296875 L 105.25 60.96875 Z M 139.710938 -2.882812 " clip-rule="nonzero"/></clipPath><clipPath id="0474eb0cfe"><path d="M 132 19 L 160 19 L 160 40 L 132 40 Z M 132 19 " clip-rule="nonzero"/></clipPath><clipPath id="eaed8a9d9c"><path d="M 139.710938 -2.882812 L 199.613281 29.445312 L 165.152344 93.296875 L 105.25 60.96875 Z M 139.710938 -2.882812 " clip-rule="nonzero"/></clipPath><clipPath id="a1a2bcd057"><path d="M 139.710938 -2.882812 L 199.613281 29.445312 L 165.152344 93.296875 L 105.25 60.96875 Z M 139.710938 -2.882812 " clip-rule="nonzero"/></clipPath><clipPath id="42dcfa3b85"><path d="M 122 33 L 144 33 L 144 51 L 122 51 Z M 122 33 " clip-rule="nonzero"/></clipPath><clipPath id="e261e7420e"><path d="M 139.710938 -2.882812 L 199.613281 29.445312 L 165.152344 93.296875 L 105.25 60.96875 Z M 139.710938 -2.882812 " clip-rule="nonzero"/></clipPath><clipPath id="73089edd86"><path d="M 139.710938 -2.882812 L 199.613281 29.445312 L 165.152344 93.296875 L 105.25 60.96875 Z M 139.710938 -2.882812 " clip-rule="nonzero"/></clipPath><clipPath id="7ca805750f"><path d="M 127 44 L 160 44 L 160 79 L 127 79 Z M 127 44 " clip-rule="nonzero"/></clipPath><clipPath id="3ea12a72a4"><path d="M 139.710938 -2.882812 L 199.613281 29.445312 L 165.152344 93.296875 L 105.25 60.96875 Z M 139.710938 -2.882812 " clip-rule="nonzero"/></clipPath><clipPath id="690f8d2d00"><path d="M 139.710938 -2.882812 L 199.613281 29.445312 L 165.152344 93.296875 L 105.25 60.96875 Z M 139.710938 -2.882812 " clip-rule="nonzero"/></clipPath><clipPath id="2c462c401a"><path d="M 117 45 L 155 45 L 155 75 L 117 75 Z M 117 45 " clip-rule="nonzero"/></clipPath><clipPath id="746ab6fe5a"><path d="M 139.710938 -2.882812 L 199.613281 29.445312 L 165.152344 93.296875 L 105.25 60.96875 Z M 139.710938 -2.882812 " clip-rule="nonzero"/></clipPath><clipPath id="8e97a5b2ae"><path d="M 139.710938 -2.882812 L 199.613281 29.445312 L 165.152344 93.296875 L 105.25 60.96875 Z M 139.710938 -2.882812 " clip-rule="nonzero"/></clipPath><clipPath id="825f543909"><path d="M 146 29 L 166 29 L 166 52 L 146 52 Z M 146 29 " clip-rule="nonzero"/></clipPath><clipPath id="77511542a8"><path d="M 139.710938 -2.882812 L 199.613281 29.445312 L 165.152344 93.296875 L 105.25 60.96875 Z M 139.710938 -2.882812 " clip-rule="nonzero"/></clipPath><clipPath id="88982baef2"><path d="M 139.710938 -2.882812 L 199.613281 29.445312 L 165.152344 93.296875 L 105.25 60.96875 Z M 139.710938 -2.882812 " clip-rule="nonzero"/></clipPath><clipPath id="6e959ae56c"><path d="M 155 9 L 172 9 L 172 28 L 155 28 Z M 155 9 " clip-rule="nonzero"/></clipPath><clipPath id="7f69c16273"><path d="M 139.710938 -2.882812 L 199.613281 29.445312 L 165.152344 93.296875 L 105.25 60.96875 Z M 139.710938 -2.882812 " clip-rule="nonzero"/></clipPath><clipPath id="df670e3cf6"><path d="M 139.710938 -2.882812 L 199.613281 29.445312 L 165.152344 93.296875 L 105.25 60.96875 Z M 139.710938 -2.882812 " clip-rule="nonzero"/></clipPath><clipPath id="4abdffd491"><path d="M 140 28 L 145 28 L 145 36 L 140 36 Z M 140 28 " clip-rule="nonzero"/></clipPath><clipPath id="c6be0b9664"><path d="M 139.710938 -2.882812 L 199.613281 29.445312 L 165.152344 93.296875 L 105.25 60.96875 Z M 139.710938 -2.882812 " clip-rule="nonzero"/></clipPath><clipPath id="bcbbf225af"><path d="M 139.710938 -2.882812 L 199.613281 29.445312 L 165.152344 93.296875 L 105.25 60.96875 Z M 139.710938 -2.882812 " clip-rule="nonzero"/></clipPath><clipPath id="98e904884b"><path d="M 136 27 L 139 27 L 139 30 L 136 30 Z M 136 27 " clip-rule="nonzero"/></clipPath><clipPath id="d82097ef73"><path d="M 139.710938 -2.882812 L 199.613281 29.445312 L 165.152344 93.296875 L 105.25 60.96875 Z M 139.710938 -2.882812 " clip-rule="nonzero"/></clipPath><clipPath id="92580923f2"><path d="M 139.710938 -2.882812 L 199.613281 29.445312 L 165.152344 93.296875 L 105.25 60.96875 Z M 139.710938 -2.882812 " clip-rule="nonzero"/></clipPath><clipPath id="bcd3cbbdef"><path d="M 135 25 L 139 25 L 139 27 L 135 27 Z M 135 25 " clip-rule="nonzero"/></clipPath><clipPath id="36f685f747"><path d="M 139.710938 -2.882812 L 199.613281 29.445312 L 165.152344 93.296875 L 105.25 60.96875 Z M 139.710938 -2.882812 " clip-rule="nonzero"/></clipPath><clipPath id="77f6d92ec5"><path d="M 139.710938 -2.882812 L 199.613281 29.445312 L 165.152344 93.296875 L 105.25 60.96875 Z M 139.710938 -2.882812 " clip-rule="nonzero"/></clipPath><clipPath id="925cdfa00f"><path d="M 149 20 L 152 20 L 152 25 L 149 25 Z M 149 20 " clip-rule="nonzero"/></clipPath><clipPath id="3aa23679f0"><path d="M 139.710938 -2.882812 L 199.613281 29.445312 L 165.152344 93.296875 L 105.25 60.96875 Z M 139.710938 -2.882812 " clip-rule="nonzero"/></clipPath><clipPath id="a81240cc9e"><path d="M 139.710938 -2.882812 L 199.613281 29.445312 L 165.152344 93.296875 L 105.25 60.96875 Z M 139.710938 -2.882812 " clip-rule="nonzero"/></clipPath><clipPath id="08893e54f9"><path d="M 148 31 L 153 31 L 153 37 L 148 37 Z M 148 31 " clip-rule="nonzero"/></clipPath><clipPath id="c0d0eab3da"><path d="M 139.710938 -2.882812 L 199.613281 29.445312 L 165.152344 93.296875 L 105.25 60.96875 Z M 139.710938 -2.882812 " clip-rule="nonzero"/></clipPath><clipPath id="c94ecd4048"><path d="M 139.710938 -2.882812 L 199.613281 29.445312 L 165.152344 93.296875 L 105.25 60.96875 Z M 139.710938 -2.882812 " clip-rule="nonzero"/></clipPath><clipPath id="a235a3acf5"><path d="M 156 13 L 159 13 L 159 18 L 156 18 Z M 156 13 " clip-rule="nonzero"/></clipPath><clipPath id="dc02d6b1b9"><path d="M 139.710938 -2.882812 L 199.613281 29.445312 L 165.152344 93.296875 L 105.25 60.96875 Z M 139.710938 -2.882812 " clip-rule="nonzero"/></clipPath><clipPath id="365ee0b493"><path d="M 139.710938 -2.882812 L 199.613281 29.445312 L 165.152344 93.296875 L 105.25 60.96875 Z M 139.710938 -2.882812 " clip-rule="nonzero"/></clipPath><clipPath id="7b1e3669d5"><path d="M 162 15 L 167 15 L 167 21 L 162 21 Z M 162 15 " clip-rule="nonzero"/></clipPath><clipPath id="2c67eb7746"><path d="M 139.710938 -2.882812 L 199.613281 29.445312 L 165.152344 93.296875 L 105.25 60.96875 Z M 139.710938 -2.882812 " clip-rule="nonzero"/></clipPath><clipPath id="c23290d872"><path d="M 139.710938 -2.882812 L 199.613281 29.445312 L 165.152344 93.296875 L 105.25 60.96875 Z M 139.710938 -2.882812 " clip-rule="nonzero"/></clipPath><clipPath id="2848dc520f"><path d="M 147 12 L 151 12 L 151 16 L 147 16 Z M 147 12 " clip-rule="nonzero"/></clipPath><clipPath id="825f1eb63e"><path d="M 139.710938 -2.882812 L 199.613281 29.445312 L 165.152344 93.296875 L 105.25 60.96875 Z M 139.710938 -2.882812 " clip-rule="nonzero"/></clipPath><clipPath id="3e4aeae761"><path d="M 139.710938 -2.882812 L 199.613281 29.445312 L 165.152344 93.296875 L 105.25 60.96875 Z M 139.710938 -2.882812 " clip-rule="nonzero"/></clipPath><clipPath id="bee4925594"><path d="M 130 18 L 133 18 L 133 22 L 130 22 Z M 130 18 " clip-rule="nonzero"/></clipPath><clipPath id="3692c74769"><path d="M 139.710938 -2.882812 L 199.613281 29.445312 L 165.152344 93.296875 L 105.25 60.96875 Z M 139.710938 -2.882812 " clip-rule="nonzero"/></clipPath><clipPath id="6299e5cf0d"><path d="M 139.710938 -2.882812 L 199.613281 29.445312 L 165.152344 93.296875 L 105.25 60.96875 Z M 139.710938 -2.882812 " clip-rule="nonzero"/></clipPath><clipPath id="379342d828"><path d="M 154 19 L 158 19 L 158 23 L 154 23 Z M 154 19 " clip-rule="nonzero"/></clipPath><clipPath id="07fe1813ed"><path d="M 139.710938 -2.882812 L 199.613281 29.445312 L 165.152344 93.296875 L 105.25 60.96875 Z M 139.710938 -2.882812 " clip-rule="nonzero"/></clipPath><clipPath id="c254903f6e"><path d="M 139.710938 -2.882812 L 199.613281 29.445312 L 165.152344 93.296875 L 105.25 60.96875 Z M 139.710938 -2.882812 " clip-rule="nonzero"/></clipPath><clipPath id="9d37604bd7"><path d="M 138 20 L 141 20 L 141 24 L 138 24 Z M 138 20 " clip-rule="nonzero"/></clipPath><clipPath id="f2a43dba63"><path d="M 139.710938 -2.882812 L 199.613281 29.445312 L 165.152344 93.296875 L 105.25 60.96875 Z M 139.710938 -2.882812 " clip-rule="nonzero"/></clipPath><clipPath id="35ef8416c5"><path d="M 139.710938 -2.882812 L 199.613281 29.445312 L 165.152344 93.296875 L 105.25 60.96875 Z M 139.710938 -2.882812 " clip-rule="nonzero"/></clipPath><clipPath id="1f091f64b8"><path d="M 126 35 L 132 35 L 132 39 L 126 39 Z M 126 35 " clip-rule="nonzero"/></clipPath><clipPath id="213843386b"><path d="M 139.710938 -2.882812 L 199.613281 29.445312 L 165.152344 93.296875 L 105.25 60.96875 Z M 139.710938 -2.882812 " clip-rule="nonzero"/></clipPath><clipPath id="292f3e311b"><path d="M 139.710938 -2.882812 L 199.613281 29.445312 L 165.152344 93.296875 L 105.25 60.96875 Z M 139.710938 -2.882812 " clip-rule="nonzero"/></clipPath><clipPath id="65916dc7b1"><path d="M 138 42 L 140 42 L 140 44 L 138 44 Z M 138 42 " clip-rule="nonzero"/></clipPath><clipPath id="42d628e3f7"><path d="M 139.710938 -2.882812 L 199.613281 29.445312 L 165.152344 93.296875 L 105.25 60.96875 Z M 139.710938 -2.882812 " clip-rule="nonzero"/></clipPath><clipPath id="349e64c5f2"><path d="M 139.710938 -2.882812 L 199.613281 29.445312 L 165.152344 93.296875 L 105.25 60.96875 Z M 139.710938 -2.882812 " clip-rule="nonzero"/></clipPath><clipPath id="e18b8b8a62"><path d="M 166 34 L 178 34 L 178 82 L 166 82 Z M 166 34 " clip-rule="nonzero"/></clipPath><clipPath id="df107d90e7"><path d="M 139.710938 -2.882812 L 199.613281 29.445312 L 165.152344 93.296875 L 105.25 60.96875 Z M 139.710938 -2.882812 " clip-rule="nonzero"/></clipPath><clipPath id="9bc1c596b6"><path d="M 139.710938 -2.882812 L 199.613281 29.445312 L 165.152344 93.296875 L 105.25 60.96875 Z M 139.710938 -2.882812 " clip-rule="nonzero"/></clipPath><clipPath id="7f0ced5a7f"><path d="M 141 79 L 164 79 L 164 89 L 141 89 Z M 141 79 " clip-rule="nonzero"/></clipPath><clipPath id="ab86ca973c"><path d="M 139.710938 -2.882812 L 199.613281 29.445312 L 165.152344 93.296875 L 105.25 60.96875 Z M 139.710938 -2.882812 " clip-rule="nonzero"/></clipPath><clipPath id="c30b8ecbfd"><path d="M 139.710938 -2.882812 L 199.613281 29.445312 L 165.152344 93.296875 L 105.25 60.96875 Z M 139.710938 -2.882812 " clip-rule="nonzero"/></clipPath><clipPath id="3a591026ed"><path d="M 146 35 L 166 35 L 166 52 L 146 52 Z M 146 35 " clip-rule="nonzero"/></clipPath><clipPath id="16ad6a3b1a"><path d="M 139.710938 -2.882812 L 199.613281 29.445312 L 165.152344 93.296875 L 105.25 60.96875 Z M 139.710938 -2.882812 " clip-rule="nonzero"/></clipPath><clipPath id="4674baaa06"><path d="M 139.710938 -2.882812 L 199.613281 29.445312 L 165.152344 93.296875 L 105.25 60.96875 Z M 139.710938 -2.882812 " clip-rule="nonzero"/></clipPath><clipPath id="052f4a64e6"><path d="M 152 46 L 176 46 L 176 73 L 152 73 Z M 152 46 " clip-rule="nonzero"/></clipPath><clipPath id="4a2eb57f23"><path d="M 139.710938 -2.882812 L 199.613281 29.445312 L 165.152344 93.296875 L 105.25 60.96875 Z M 139.710938 -2.882812 " clip-rule="nonzero"/></clipPath><clipPath id="a065249af7"><path d="M 139.710938 -2.882812 L 199.613281 29.445312 L 165.152344 93.296875 L 105.25 60.96875 Z M 139.710938 -2.882812 " clip-rule="nonzero"/></clipPath><mask id="1fd7f2a0a8"><g filter="url(#1a1fa58750)"><rect x="-18.75" width="225" fill="#000000" y="-9" height="107.999999" fill-opacity="0.42"/></g></mask><clipPath id="48120dbec3"><path d="M 6 3 L 20 3 L 20 26 L 6 26 Z M 6 3 " clip-rule="nonzero"/></clipPath><clipPath id="5712ea8c37"><path d="M -12.289062 -48.882812 L 47.613281 -16.554688 L 13.152344 47.296875 L -46.75 14.96875 Z M -12.289062 -48.882812 " clip-rule="nonzero"/></clipPath><clipPath id="301c6ea76f"><path d="M -12.289062 -48.882812 L 47.613281 -16.554688 L 13.152344 47.296875 L -46.75 14.96875 Z M -12.289062 -48.882812 " clip-rule="nonzero"/></clipPath><clipPath id="ceb7ebb747"><rect x="0" width="24" y="0" height="27"/></clipPath><clipPath id="04b431539b"><path d="M 158 51 L 166 51 L 166 68 L 158 68 Z M 158 51 " clip-rule="nonzero"/></clipPath><clipPath id="0a1d135409"><path d="M 139.710938 -2.882812 L 199.613281 29.445312 L 165.152344 93.296875 L 105.25 60.96875 Z M 139.710938 -2.882812 " clip-rule="nonzero"/></clipPath><clipPath id="838381da05"><path d="M 139.710938 -2.882812 L 199.613281 29.445312 L 165.152344 93.296875 L 105.25 60.96875 Z M 139.710938 -2.882812 " clip-rule="nonzero"/></clipPath><clipPath id="d657be650f"><path d="M 159 59 L 162 59 L 162 73 L 159 73 Z M 159 59 " clip-rule="nonzero"/></clipPath><clipPath id="2a41be7e58"><path d="M 139.710938 -2.882812 L 199.613281 29.445312 L 165.152344 93.296875 L 105.25 60.96875 Z M 139.710938 -2.882812 " clip-rule="nonzero"/></clipPath><clipPath id="7372e03e32"><path d="M 139.710938 -2.882812 L 199.613281 29.445312 L 165.152344 93.296875 L 105.25 60.96875 Z M 139.710938 -2.882812 " clip-rule="nonzero"/></clipPath><clipPath id="f5b8047920"><path d="M 69.121094 48 L 81 48 L 81 70.222656 L 69.121094 70.222656 Z M 69.121094 48 " clip-rule="nonzero"/></clipPath></defs><g clip-path="url(#8fa9dbf19a)"><g clip-path="url(#bdc20d7d71)"><g clip-path="url(#b0c13ddb6a)"><path fill="#c6302c" d="M 135.109375 25.847656 C 132.550781 25.542969 130.179688 23.953125 128.917969 21.707031 C 128.511719 20.980469 128.214844 20.097656 128.53125 19.328125 C 128.851562 18.558594 130.03125 18.183594 130.535156 18.847656 C 129.828125 16.523438 130.707031 13.800781 132.640625 12.332031 C 132.796875 12.214844 132.980469 12.097656 133.175781 12.121094 C 133.398438 12.152344 133.554688 12.351562 133.757812 12.445312 C 134.109375 12.605469 134.511719 12.429688 134.839844 12.230469 C 136.230469 11.390625 137.339844 10.164062 138.660156 9.21875 C 139.980469 8.277344 141.6875 7.617188 143.21875 8.148438 C 145.394531 8.90625 146.25 11.632812 148.253906 12.761719 C 149.496094 11.574219 151.46875 11.648438 153.140625 12.050781 C 154.6875 12.421875 156.183594 13.007812 157.574219 13.789062 C 158.042969 14.054688 158.511719 14.351562 158.824219 14.789062 C 159.371094 15.550781 159.335938 16.617188 158.96875 17.484375 C 158.605469 18.351562 157.960938 19.0625 157.328125 19.757812 C 158.609375 19.957031 160.183594 20.433594 160.371094 21.714844 C 160.496094 22.574219 159.890625 23.355469 159.304688 23.996094 C 157.996094 25.414062 156.511719 26.609375 155.003906 27.832031 C 153.675781 28.90625 151.996094 28.90625 150.363281 28.921875 C 148.402344 28.945312 146.476562 28.4375 144.578125 27.9375 C 141.761719 27.191406 138.003906 26.195312 135.109375 25.847656 Z M 135.109375 25.847656 " fill-opacity="1" fill-rule="nonzero"/></g></g></g><g clip-path="url(#80201cd591)"><g clip-path="url(#bd611305de)"><g clip-path="url(#696df6664f)"><path fill="#f55d4e" d="M 128.832031 59.839844 C 128.691406 60.566406 128.53125 61.214844 128.449219 62.023438 C 128.273438 63.792969 129.085938 65.492188 129.894531 67.078125 C 130.421875 68.117188 131.15625 69.191406 132.035156 69.953125 C 130.234375 69.570312 128.515625 68.910156 126.804688 68.222656 C 128.714844 69.949219 130.882812 71.476562 133.199219 72.597656 C 135.292969 74.796875 137.253906 77.371094 139.925781 78.8125 C 144.246094 81.144531 148.746094 83.546875 153.15625 85.917969 C 153.222656 81.246094 154.167969 76.613281 156.140625 72.265625 C 146.9375 68.46875 137.917969 63.949219 128.832031 59.839844 Z M 128.832031 59.839844 " fill-opacity="1" fill-rule="nonzero"/></g></g></g><g clip-path="url(#238ed24642)"><g clip-path="url(#52031ec1c3)"><g clip-path="url(#69d9a41579)"><path fill="#fcfaef" d="M 171.988281 78.671875 C 173.179688 74.316406 173.941406 69.855469 174.703125 65.40625 C 175.628906 60 176.554688 54.59375 177.476562 49.1875 C 177.578125 48.589844 177.679688 47.964844 177.503906 47.386719 C 177.328125 46.800781 176.894531 46.332031 176.472656 45.890625 C 173.027344 42.261719 169.582031 38.636719 166.136719 35.007812 C 162.621094 35.101562 159.109375 35.125 155.589844 35.03125 C 149.273438 34.863281 142.9375 34.691406 136.644531 35.28125 C 135.484375 35.390625 134.304688 35.527344 133.222656 35.960938 C 132.097656 36.40625 131.121094 37.148438 130.113281 37.824219 C 126.503906 40.234375 122.375 41.804688 118.832031 44.3125 C 118.25 44.726562 117.621094 45.296875 117.699219 46.007812 C 117.742188 46.378906 117.972656 46.695312 118.226562 46.972656 C 118.652344 47.441406 119.492188 47.730469 119.996094 48.117188 C 123.382812 50.71875 126.519531 53.445312 129.613281 56.398438 C 129.25 57.261719 129.101562 58.199219 128.960938 59.128906 C 128.921875 59.378906 128.878906 59.613281 128.832031 59.839844 C 137.917969 63.949219 146.9375 68.46875 156.140625 72.265625 C 154.167969 76.609375 153.222656 81.246094 153.15625 85.917969 C 154.664062 86.726562 156.160156 87.53125 157.636719 88.328125 C 162.277344 89.027344 167.496094 87.441406 170.046875 83.503906 C 170.992188 82.042969 171.527344 80.355469 171.988281 78.671875 Z M 171.988281 78.671875 " fill-opacity="1" fill-rule="nonzero"/></g></g></g><g clip-path="url(#0474eb0cfe)"><g clip-path="url(#eaed8a9d9c)"><g clip-path="url(#a1a2bcd057)"><path fill="#f55d4e" d="M 132.753906 22.929688 C 133.820312 25.066406 134.890625 27.21875 135.5625 29.511719 C 135.945312 30.808594 136.179688 32.253906 135.59375 33.46875 C 136.636719 33.21875 137.3125 32.890625 138.320312 32.523438 C 140.132812 35.046875 141.738281 37.5 144.003906 39.628906 C 143.96875 39.554688 144.035156 39.707031 144.003906 39.628906 C 144.246094 39.601562 144.320312 39.578125 144.539062 39.464844 C 146.375 38.484375 148.070312 37.234375 149.546875 35.765625 C 151.125 36.183594 152.398438 36.734375 153.660156 37.769531 C 154.539062 37.324219 155.53125 36.628906 156.078125 35.804688 C 157.484375 33.675781 158.902344 31.902344 159.691406 29.472656 C 157.371094 28.203125 155.070312 26.765625 153.078125 25.59375 C 153.078125 25.59375 153.289062 24.941406 153.445312 24.40625 C 153.671875 23.632812 153.628906 22.433594 153.417969 21.65625 C 153.15625 20.671875 152.433594 19.800781 151.480469 19.4375 C 150.527344 19.074219 149.367188 19.257812 148.625 19.957031 C 148.375 20.191406 148.171875 20.484375 148.078125 20.816406 C 147.875 21.5625 148.261719 22.335938 148.691406 22.976562 C 148.191406 22.308594 147.292969 22.261719 146.46875 22.398438 C 145.644531 22.539062 144.921875 23.164062 144.671875 23.960938 C 144.617188 24.128906 144.578125 24.308594 144.46875 24.445312 C 144.28125 24.671875 143.949219 24.703125 143.65625 24.679688 C 142.648438 24.601562 141.734375 24.082031 140.804688 23.675781 C 140.679688 23.621094 140.53125 23.566406 140.410156 23.632812 C 140.3125 23.6875 140.269531 23.796875 140.214844 23.894531 C 139.808594 24.660156 138.746094 24.726562 137.882812 24.613281 C 136.179688 24.386719 134.269531 23.742188 132.753906 22.929688 Z M 132.753906 22.929688 " fill-opacity="1" fill-rule="nonzero"/></g></g></g><g clip-path="url(#42dcfa3b85)"><g clip-path="url(#e261e7420e)"><g clip-path="url(#73089edd86)"><path fill="#f4a8a1" d="M 140.769531 37.785156 C 141.527344 38.945312 141.828125 40.398438 141.421875 42.171875 C 141.339844 42.539062 141.234375 42.910156 141.289062 43.28125 C 141.355469 43.75 141.671875 44.152344 142.058594 44.425781 C 142.441406 44.699219 142.890625 44.867188 143.332031 45.027344 C 143.136719 45.269531 142.886719 45.46875 142.605469 45.605469 C 141.636719 47.691406 139.621094 49.550781 137.355469 49.925781 C 135.144531 50.292969 132.910156 49.605469 130.773438 48.925781 C 129.421875 48.496094 127.640625 48.867188 126.292969 48.4375 C 125.054688 48.042969 124.148438 46.773438 123.460938 45.671875 C 123.136719 45.15625 122.992188 44.546875 122.902344 43.941406 C 122.433594 40.886719 123.628906 37.121094 126.179688 35.230469 C 130.078125 32.339844 138.015625 33.5625 140.769531 37.785156 Z M 140.769531 37.785156 " fill-opacity="1" fill-rule="nonzero"/></g></g></g><g clip-path="url(#7ca805750f)"><g clip-path="url(#3ea12a72a4)"><g clip-path="url(#690f8d2d00)"><path fill="#76b1af" d="M 135.433594 44.902344 C 137.824219 44.722656 140.195312 45.375 142.492188 46.0625 C 142.71875 46.128906 142.960938 46.203125 143.121094 46.378906 C 143.480469 46.769531 143.253906 47.417969 142.890625 47.804688 C 142.523438 48.1875 142.035156 48.46875 141.78125 48.933594 C 141.402344 49.625 141.683594 50.523438 142.210938 51.109375 C 142.738281 51.695312 143.464844 52.058594 144.140625 52.464844 C 145.574219 53.328125 146.855469 54.449219 147.898438 55.761719 C 148.691406 56.753906 149.347656 57.859375 150.21875 58.785156 C 151.582031 60.234375 153.410156 61.1875 154.746094 62.660156 C 155.957031 63.988281 156.699219 65.667969 157.421875 67.3125 C 157.8125 68.199219 158.203125 69.089844 158.59375 69.976562 C 159.191406 71.332031 159.796875 72.828125 159.386719 74.246094 C 158.976562 75.660156 157.679688 76.597656 156.464844 77.421875 C 155.957031 77.765625 155.441406 78.117188 154.855469 78.292969 C 154.363281 78.441406 153.839844 78.460938 153.328125 78.453125 C 151.578125 78.414062 149.839844 78.027344 148.242188 77.316406 C 146.230469 76.421875 144.480469 75.046875 142.753906 73.683594 C 141.789062 72.921875 140.828125 72.164062 139.867188 71.402344 C 137.039062 69.171875 134.210938 66.9375 131.382812 64.707031 C 130.109375 63.703125 128.796875 62.648438 128.0625 61.203125 C 127.214844 59.53125 127.25 57.566406 127.351562 55.691406 C 127.617188 50.628906 129.648438 45.335938 135.433594 44.902344 Z M 135.433594 44.902344 " fill-opacity="1" fill-rule="nonzero"/></g></g></g><g clip-path="url(#2c462c401a)"><g clip-path="url(#746ab6fe5a)"><g clip-path="url(#8e97a5b2ae)"><path fill="#f55d4e" d="M 122.164062 56.523438 C 126.15625 56.875 130.152344 57.226562 134.148438 57.578125 C 135.375 57.683594 136.996094 57.589844 137.394531 58.757812 C 138.894531 63.164062 141.089844 67.332031 143.871094 71.066406 C 142.988281 69.015625 142.710938 66.867188 142.460938 64.648438 C 143.394531 67.789062 144.984375 70.734375 147.097656 73.234375 C 146.722656 71.179688 146.34375 69.125 145.96875 67.070312 C 145.835938 66.355469 145.996094 65.808594 145.898438 65.089844 C 147.035156 68.207031 148.636719 71.15625 150.625 73.8125 C 150.753906 73.984375 150.976562 74.175781 151.15625 74.058594 C 150.632812 72.199219 150.109375 70.34375 149.585938 68.488281 C 149.207031 67.152344 149.304688 65.925781 149.070312 64.554688 C 150.289062 65.921875 150.945312 67.742188 152.265625 69.007812 C 153.03125 69.742188 153.984375 70.25 154.945312 70.695312 C 153.085938 67.167969 151.589844 63.410156 150.601562 59.542969 C 151.890625 60.039062 153.40625 60.15625 154.757812 59.886719 C 149.984375 57.433594 145.738281 54.089844 141.886719 50.355469 C 133.796875 48.734375 125.707031 47.117188 117.617188 45.496094 C 116.773438 47.105469 116.839844 49.109375 117.578125 50.769531 C 118.316406 52.425781 119.53125 53.820312 120.730469 55.183594 C 121.070312 55.570312 121.714844 56.273438 122.164062 56.523438 Z M 122.164062 56.523438 " fill-opacity="1" fill-rule="nonzero"/></g></g></g><g clip-path="url(#825f543909)"><g clip-path="url(#77511542a8)"><g clip-path="url(#88982baef2)"><path fill="#f55d4e" d="M 151.277344 33.484375 C 149.175781 39.167969 147.695312 45.074219 146.867188 51.074219 C 152.734375 47.683594 158.945312 44.601562 163.023438 39.1875 C 164.042969 37.832031 164.925781 36.378906 165.804688 34.929688 C 163.632812 32.980469 162.027344 31.21875 159.691406 29.472656 C 159.757812 29.421875 159.332031 29.46875 159.25 29.449219 C 159.171875 29.425781 159.089844 29.464844 159.015625 29.503906 C 156.191406 30.980469 154.097656 32.007812 151.277344 33.484375 Z M 151.277344 33.484375 " fill-opacity="1" fill-rule="nonzero"/></g></g></g><g clip-path="url(#6e959ae56c)"><g clip-path="url(#7f69c16273)"><g clip-path="url(#df670e3cf6)"><path fill="#c6302c" d="M 156.296875 16.292969 C 156.621094 13.949219 157.214844 11.226562 159.367188 10.25 C 160.140625 9.898438 161.011719 9.839844 161.855469 9.917969 C 163.703125 10.09375 165.691406 11.21875 165.953125 13.058594 C 166.085938 13.976562 165.765625 14.890625 165.722656 15.816406 C 165.65625 17.214844 166.257812 18.628906 167.3125 19.546875 C 168.367188 20.464844 169.851562 20.867188 171.222656 20.609375 C 170.882812 21.507812 169.796875 21.9375 168.839844 21.835938 C 167.886719 21.734375 167.027344 21.222656 166.207031 20.722656 C 167.410156 22.402344 169.265625 23.597656 171.289062 24.007812 C 170.253906 26.304688 167.757812 27.917969 165.246094 27.71875 C 162.734375 27.519531 160.460938 25.382812 160.289062 22.867188 C 160.242188 22.152344 160.347656 21.429688 160.289062 20.714844 C 160.0625 17.925781 157.496094 15.996094 155.164062 14.449219 " fill-opacity="1" fill-rule="nonzero"/></g></g></g><g clip-path="url(#4abdffd491)"><g clip-path="url(#c6be0b9664)"><g clip-path="url(#bcbbf225af)"><path fill="#c6302c" d="M 140.933594 35.902344 C 140.933594 35.902344 141.054688 35.890625 141.253906 35.824219 C 141.453125 35.757812 141.730469 35.625 142.011719 35.375 C 142.292969 35.128906 142.570312 34.773438 142.804688 34.335938 C 143.039062 33.902344 143.222656 33.386719 143.386719 32.832031 C 143.707031 31.71875 143.941406 30.6875 144.117188 29.941406 C 144.289062 29.195312 144.398438 28.734375 144.398438 28.734375 C 144.398438 28.734375 144.351562 29.207031 144.246094 29.964844 C 144.132812 30.722656 143.964844 31.773438 143.640625 32.90625 C 143.472656 33.46875 143.265625 34.003906 142.996094 34.445312 C 142.730469 34.890625 142.410156 35.246094 142.09375 35.476562 C 141.78125 35.710938 141.476562 35.820312 141.265625 35.867188 C 141.160156 35.886719 141.078125 35.894531 141.019531 35.898438 C 140.964844 35.902344 140.933594 35.902344 140.933594 35.902344 Z M 140.933594 35.902344 " fill-opacity="1" fill-rule="nonzero"/></g></g></g><g clip-path="url(#98e904884b)"><g clip-path="url(#d82097ef73)"><g clip-path="url(#92580923f2)"><path fill="#c6302c" d="M 136.542969 29.042969 C 136.542969 29.042969 136.585938 29.046875 136.664062 29.050781 C 136.738281 29.054688 136.847656 29.046875 136.972656 29.015625 C 137.226562 28.957031 137.546875 28.777344 137.804688 28.488281 C 138.0625 28.191406 138.234375 27.859375 138.363281 27.621094 C 138.492188 27.378906 138.574219 27.222656 138.574219 27.222656 C 138.574219 27.222656 138.554688 27.394531 138.484375 27.667969 C 138.417969 27.933594 138.296875 28.320312 138 28.664062 C 137.699219 29.007812 137.28125 29.152344 136.988281 29.148438 C 136.84375 29.148438 136.730469 29.121094 136.65625 29.089844 C 136.582031 29.0625 136.542969 29.042969 136.542969 29.042969 Z M 136.542969 29.042969 " fill-opacity="1" fill-rule="nonzero"/></g></g></g><g clip-path="url(#bcd3cbbdef)"><g clip-path="url(#36f685f747)"><g clip-path="url(#77f6d92ec5)"><path fill="#c6302c" d="M 138.046875 25.542969 C 138.046875 25.542969 137.875 25.578125 137.609375 25.648438 C 137.34375 25.71875 136.984375 25.832031 136.597656 25.976562 C 136.214844 26.125 135.871094 26.285156 135.625 26.410156 C 135.382812 26.535156 135.230469 26.625 135.230469 26.625 C 135.230469 26.625 135.339844 26.488281 135.554688 26.300781 C 135.769531 26.117188 136.097656 25.890625 136.503906 25.734375 C 136.910156 25.578125 137.308594 25.523438 137.589844 25.519531 C 137.875 25.511719 138.046875 25.542969 138.046875 25.542969 Z M 138.046875 25.542969 " fill-opacity="1" fill-rule="nonzero"/></g></g></g><g clip-path="url(#925cdfa00f)"><g clip-path="url(#3aa23679f0)"><g clip-path="url(#a81240cc9e)"><path fill="#c6302c" d="M 149.910156 23.902344 C 149.914062 23.90625 149.859375 23.890625 149.867188 23.816406 C 149.871094 23.75 149.917969 23.675781 149.96875 23.574219 C 150.078125 23.378906 150.277344 23.105469 150.621094 22.875 C 150.707031 22.816406 150.800781 22.761719 150.902344 22.714844 C 151.007812 22.671875 151.113281 22.621094 151.25 22.605469 C 151.386719 22.582031 151.5625 22.636719 151.660156 22.761719 C 151.761719 22.878906 151.804688 23.023438 151.828125 23.167969 C 151.867188 23.449219 151.835938 23.746094 151.730469 24.035156 C 151.679688 24.179688 151.609375 24.320312 151.519531 24.453125 C 151.5 24.484375 151.472656 24.515625 151.449219 24.550781 L 151.40625 24.605469 C 151.382812 24.632812 151.355469 24.660156 151.328125 24.679688 C 151.273438 24.71875 151.203125 24.730469 151.136719 24.707031 C 151.074219 24.6875 151.027344 24.632812 150.992188 24.5625 C 150.960938 24.484375 150.929688 24.40625 150.894531 24.328125 C 150.871094 24.257812 150.847656 24.183594 150.820312 24.109375 C 150.777344 23.964844 150.742188 23.820312 150.714844 23.675781 C 150.65625 23.386719 150.628906 23.105469 150.621094 22.839844 C 150.601562 22.304688 150.640625 21.828125 150.683594 21.429688 C 150.730469 21.035156 150.765625 20.707031 150.839844 20.492188 C 150.878906 20.386719 150.917969 20.304688 150.949219 20.253906 C 150.980469 20.203125 151 20.179688 151 20.179688 C 151 20.179688 150.984375 20.207031 150.960938 20.261719 C 150.933594 20.316406 150.90625 20.394531 150.882812 20.503906 C 150.828125 20.71875 150.828125 21.039062 150.816406 21.4375 C 150.804688 21.835938 150.796875 22.308594 150.839844 22.824219 C 150.863281 23.082031 150.898438 23.351562 150.960938 23.625 C 150.992188 23.757812 151.027344 23.894531 151.070312 24.03125 L 151.140625 24.238281 L 151.21875 24.421875 L 151.242188 24.390625 C 151.265625 24.359375 151.285156 24.335938 151.304688 24.304688 C 151.382812 24.191406 151.449219 24.074219 151.496094 23.949219 C 151.59375 23.699219 151.628906 23.433594 151.609375 23.195312 C 151.597656 23.078125 151.5625 22.96875 151.503906 22.890625 C 151.445312 22.8125 151.363281 22.777344 151.265625 22.785156 C 151.167969 22.789062 151.0625 22.824219 150.964844 22.859375 C 150.863281 22.894531 150.773438 22.9375 150.6875 22.984375 C 150.347656 23.175781 150.132812 23.417969 150.003906 23.597656 C 149.941406 23.6875 149.886719 23.761719 149.878906 23.820312 C 149.863281 23.882812 149.914062 23.90625 149.910156 23.902344 Z M 149.910156 23.902344 " fill-opacity="1" fill-rule="nonzero"/></g></g></g><g clip-path="url(#08893e54f9)"><g clip-path="url(#c0d0eab3da)"><g clip-path="url(#c94ecd4048)"><path fill="#c6302c" d="M 148.546875 36.527344 C 148.546875 36.527344 148.796875 36.273438 149.191406 35.859375 C 149.582031 35.445312 150.105469 34.859375 150.652344 34.1875 C 151.195312 33.511719 151.660156 32.878906 151.984375 32.40625 C 152.304688 31.9375 152.496094 31.636719 152.496094 31.636719 C 152.496094 31.636719 152.363281 31.96875 152.09375 32.476562 C 151.824219 32.984375 151.410156 33.667969 150.855469 34.351562 C 150.300781 35.035156 149.722656 35.585938 149.28125 35.957031 C 148.839844 36.324219 148.546875 36.527344 148.546875 36.527344 Z M 148.546875 36.527344 " fill-opacity="1" fill-rule="nonzero"/></g></g></g><g clip-path="url(#a235a3acf5)"><g clip-path="url(#dc02d6b1b9)"><g clip-path="url(#365ee0b493)"><path fill="#fcfaef" d="M 158.824219 17.703125 C 158.824219 17.703125 158.765625 17.671875 158.652344 17.613281 C 158.542969 17.554688 158.386719 17.457031 158.207031 17.316406 C 158.027344 17.179688 157.828125 16.992188 157.632812 16.761719 C 157.441406 16.527344 157.257812 16.25 157.105469 15.929688 C 156.960938 15.613281 156.867188 15.292969 156.8125 14.996094 C 156.761719 14.695312 156.746094 14.425781 156.757812 14.199219 C 156.765625 13.972656 156.789062 13.789062 156.820312 13.667969 C 156.847656 13.542969 156.859375 13.476562 156.859375 13.476562 C 156.859375 13.476562 156.859375 13.546875 156.859375 13.671875 C 156.855469 13.792969 156.867188 13.976562 156.886719 14.195312 C 156.910156 14.414062 156.957031 14.667969 157.027344 14.945312 C 157.105469 15.222656 157.207031 15.519531 157.347656 15.820312 C 157.488281 16.117188 157.648438 16.390625 157.808594 16.625 C 157.976562 16.859375 158.140625 17.0625 158.292969 17.21875 C 158.445312 17.378906 158.578125 17.5 158.675781 17.578125 C 158.773438 17.65625 158.824219 17.703125 158.824219 17.703125 Z M 158.824219 17.703125 " fill-opacity="1" fill-rule="nonzero"/></g></g></g><g clip-path="url(#7b1e3669d5)"><g clip-path="url(#2c67eb7746)"><g clip-path="url(#c23290d872)"><path fill="#c6302c" d="M 166.433594 20.964844 C 166.433594 20.964844 166.359375 20.917969 166.21875 20.835938 C 166.082031 20.75 165.882812 20.621094 165.648438 20.449219 C 165.179688 20.101562 164.566406 19.566406 164.007812 18.867188 C 163.730469 18.515625 163.488281 18.167969 163.296875 17.824219 C 163.109375 17.484375 162.984375 17.148438 162.933594 16.851562 C 162.882812 16.558594 162.90625 16.3125 162.945312 16.152344 C 162.964844 16.070312 162.988281 16.011719 163.003906 15.972656 C 163.019531 15.933594 163.027344 15.910156 163.027344 15.910156 C 163.027344 15.910156 163.023438 15.933594 163.015625 15.976562 C 163.003906 16.015625 162.996094 16.078125 162.988281 16.160156 C 162.972656 16.320312 162.980469 16.550781 163.0625 16.824219 C 163.210938 17.371094 163.671875 18.019531 164.214844 18.703125 C 164.757812 19.386719 165.3125 19.953125 165.734375 20.347656 C 165.941406 20.542969 166.121094 20.695312 166.242188 20.800781 C 166.367188 20.90625 166.433594 20.964844 166.433594 20.964844 Z M 166.433594 20.964844 " fill-opacity="1" fill-rule="nonzero"/></g></g></g><g clip-path="url(#2848dc520f)"><g clip-path="url(#825f1eb63e)"><g clip-path="url(#3e4aeae761)"><path fill="#fcfaef" d="M 148.566406 12.972656 C 148.566406 12.972656 148.542969 12.972656 148.492188 12.972656 C 148.441406 12.972656 148.367188 12.980469 148.28125 13.015625 C 148.109375 13.078125 147.867188 13.261719 147.789062 13.578125 C 147.707031 13.886719 147.824219 14.300781 148.125 14.601562 C 148.273438 14.753906 148.464844 14.882812 148.679688 14.984375 C 148.894531 15.085938 149.128906 15.183594 149.363281 15.203125 C 149.601562 15.230469 149.804688 15.144531 149.867188 14.964844 C 149.929688 14.789062 149.855469 14.558594 149.753906 14.378906 C 149.527344 14.011719 149.230469 13.707031 148.984375 13.476562 C 148.730469 13.246094 148.503906 13.082031 148.34375 12.976562 C 148.183594 12.867188 148.089844 12.8125 148.089844 12.8125 C 148.089844 12.8125 148.191406 12.851562 148.363281 12.941406 C 148.539062 13.027344 148.789062 13.164062 149.070312 13.375 C 149.347656 13.59375 149.664062 13.863281 149.941406 14.265625 C 150.007812 14.367188 150.066406 14.480469 150.101562 14.613281 C 150.136719 14.742188 150.15625 14.894531 150.105469 15.046875 C 150.054688 15.195312 149.9375 15.328125 149.792969 15.398438 C 149.644531 15.46875 149.488281 15.476562 149.34375 15.464844 C 149.046875 15.4375 148.796875 15.324219 148.566406 15.210938 C 148.335938 15.089844 148.125 14.9375 147.960938 14.753906 C 147.632812 14.382812 147.535156 13.890625 147.664062 13.539062 C 147.792969 13.179688 148.082031 13.019531 148.269531 12.976562 C 148.363281 12.953125 148.441406 12.957031 148.492188 12.960938 C 148.542969 12.96875 148.566406 12.972656 148.566406 12.972656 Z M 148.566406 12.972656 " fill-opacity="1" fill-rule="nonzero"/></g></g></g><g clip-path="url(#bee4925594)"><g clip-path="url(#3692c74769)"><g clip-path="url(#6299e5cf0d)"><path fill="#fcfaef" d="M 130.5625 18.488281 C 130.5625 18.488281 130.65625 18.519531 130.824219 18.589844 C 130.988281 18.660156 131.226562 18.769531 131.507812 18.9375 C 131.785156 19.105469 132.101562 19.332031 132.414062 19.632812 C 132.566406 19.78125 132.738281 19.941406 132.859375 20.175781 C 132.972656 20.40625 133.007812 20.742188 132.792969 20.992188 C 132.683594 21.113281 132.53125 21.171875 132.390625 21.1875 C 132.246094 21.203125 132.105469 21.171875 131.984375 21.121094 C 131.742188 21.011719 131.574219 20.839844 131.425781 20.683594 C 131.128906 20.363281 130.917969 20.03125 130.777344 19.738281 C 130.632812 19.445312 130.550781 19.191406 130.503906 19.019531 C 130.457031 18.84375 130.441406 18.746094 130.441406 18.746094 C 130.441406 18.746094 130.472656 18.839844 130.542969 19.003906 C 130.613281 19.171875 130.722656 19.40625 130.890625 19.671875 C 131.058594 19.941406 131.285156 20.242188 131.585938 20.527344 C 131.734375 20.671875 131.894531 20.816406 132.082031 20.886719 C 132.257812 20.960938 132.484375 20.945312 132.597656 20.816406 C 132.714844 20.6875 132.714844 20.460938 132.628906 20.285156 C 132.546875 20.101562 132.398438 19.941406 132.257812 19.789062 C 131.972656 19.484375 131.6875 19.238281 131.433594 19.046875 C 131.179688 18.855469 130.960938 18.71875 130.804688 18.628906 C 130.648438 18.539062 130.5625 18.488281 130.5625 18.488281 Z M 130.5625 18.488281 " fill-opacity="1" fill-rule="nonzero"/></g></g></g><g clip-path="url(#379342d828)"><g clip-path="url(#07fe1813ed)"><g clip-path="url(#c254903f6e)"><path fill="#fcfaef" d="M 157.199219 19.8125 C 157.199219 19.8125 157.191406 19.839844 157.183594 19.890625 C 157.175781 19.945312 157.160156 20.023438 157.132812 20.125 C 157.085938 20.324219 156.996094 20.609375 156.835938 20.945312 C 156.671875 21.277344 156.429688 21.65625 156.085938 22.011719 C 155.910156 22.1875 155.738281 22.375 155.460938 22.511719 C 155.324219 22.574219 155.148438 22.601562 154.984375 22.546875 C 154.816406 22.496094 154.6875 22.378906 154.597656 22.242188 C 154.507812 22.105469 154.453125 21.953125 154.441406 21.796875 C 154.429688 21.636719 154.464844 21.476562 154.523438 21.347656 C 154.640625 21.074219 154.839844 20.878906 155.035156 20.722656 C 155.433594 20.417969 155.832031 20.222656 156.175781 20.089844 C 156.519531 19.953125 156.8125 19.886719 157.015625 19.847656 C 157.214844 19.808594 157.328125 19.796875 157.328125 19.796875 C 157.328125 19.796875 157.21875 19.824219 157.023438 19.886719 C 156.828125 19.949219 156.550781 20.046875 156.226562 20.207031 C 155.90625 20.367188 155.53125 20.589844 155.175781 20.894531 C 155.003906 21.046875 154.839844 21.226562 154.757812 21.441406 C 154.710938 21.554688 154.691406 21.664062 154.703125 21.773438 C 154.710938 21.886719 154.753906 22 154.816406 22.097656 C 154.945312 22.296875 155.160156 22.371094 155.363281 22.28125 C 155.566406 22.191406 155.757812 22.011719 155.929688 21.855469 C 156.273438 21.535156 156.53125 21.1875 156.71875 20.878906 C 156.90625 20.574219 157.023438 20.300781 157.09375 20.109375 C 157.128906 20.015625 157.15625 19.941406 157.171875 19.890625 C 157.1875 19.835938 157.199219 19.8125 157.199219 19.8125 Z M 157.199219 19.8125 " fill-opacity="1" fill-rule="nonzero"/></g></g></g><g clip-path="url(#9d37604bd7)"><g clip-path="url(#f2a43dba63)"><g clip-path="url(#35ef8416c5)"><path fill="#fcfaef" d="M 140.371094 23.765625 C 140.371094 23.765625 140.347656 23.78125 140.292969 23.785156 C 140.238281 23.792969 140.160156 23.777344 140.066406 23.738281 C 139.890625 23.664062 139.628906 23.542969 139.355469 23.316406 C 139.082031 23.09375 138.789062 22.746094 138.679688 22.265625 C 138.558594 21.796875 138.699219 21.167969 139.191406 20.820312 C 139.3125 20.734375 139.441406 20.667969 139.605469 20.644531 C 139.6875 20.636719 139.78125 20.648438 139.855469 20.679688 C 139.933594 20.714844 139.996094 20.761719 140.046875 20.808594 C 140.257812 20.996094 140.371094 21.246094 140.429688 21.480469 C 140.539062 21.953125 140.5 22.371094 140.472656 22.714844 C 140.441406 23.0625 140.386719 23.339844 140.34375 23.527344 C 140.300781 23.71875 140.269531 23.820312 140.269531 23.820312 C 140.269531 23.820312 140.28125 23.714844 140.304688 23.523438 C 140.320312 23.328125 140.34375 23.050781 140.34375 22.710938 C 140.335938 22.371094 140.335938 21.953125 140.214844 21.539062 C 140.152344 21.335938 140.046875 21.136719 139.882812 20.996094 C 139.796875 20.921875 139.726562 20.890625 139.636719 20.90625 C 139.542969 20.914062 139.433594 20.96875 139.34375 21.035156 C 139.152344 21.167969 139.015625 21.367188 138.945312 21.578125 C 138.867188 21.789062 138.863281 22.011719 138.898438 22.222656 C 138.96875 22.644531 139.203125 22.984375 139.441406 23.21875 C 139.679688 23.457031 139.921875 23.605469 140.085938 23.703125 C 140.167969 23.75 140.242188 23.773438 140.292969 23.773438 C 140.34375 23.777344 140.371094 23.765625 140.371094 23.765625 Z M 140.371094 23.765625 " fill-opacity="1" fill-rule="nonzero"/></g></g></g><g clip-path="url(#1f091f64b8)"><g clip-path="url(#213843386b)"><g clip-path="url(#292f3e311b)"><path fill="#c6302c" d="M 126.335938 38.871094 C 126.335938 38.871094 126.316406 38.859375 126.28125 38.824219 C 126.25 38.789062 126.203125 38.730469 126.167969 38.644531 C 126.09375 38.476562 126.082031 38.175781 126.238281 37.878906 C 126.5625 37.3125 127.167969 36.625 128.023438 36.117188 C 128.878906 35.601562 129.777344 35.410156 130.414062 35.367188 C 130.738281 35.347656 130.996094 35.355469 131.175781 35.371094 C 131.351562 35.390625 131.449219 35.398438 131.449219 35.398438 C 131.449219 35.398438 131.351562 35.40625 131.175781 35.414062 C 130.996094 35.421875 130.742188 35.445312 130.429688 35.496094 C 129.8125 35.605469 128.972656 35.851562 128.160156 36.34375 C 127.34375 36.824219 126.714844 37.445312 126.355469 37.945312 C 126.183594 38.199219 126.160156 38.464844 126.207031 38.632812 C 126.230469 38.714844 126.265625 38.777344 126.289062 38.816406 C 126.316406 38.855469 126.335938 38.871094 126.335938 38.871094 Z M 126.335938 38.871094 " fill-opacity="1" fill-rule="nonzero"/></g></g></g><g clip-path="url(#65916dc7b1)"><g clip-path="url(#42d628e3f7)"><g clip-path="url(#349e64c5f2)"><path fill="#c6302c" d="M 138.582031 43.054688 C 138.582031 43.054688 138.671875 43.074219 138.804688 43.085938 C 138.941406 43.097656 139.117188 43.085938 139.304688 43.054688 C 139.488281 43.023438 139.65625 42.96875 139.78125 42.914062 C 139.902344 42.859375 139.980469 42.808594 139.980469 42.808594 C 139.980469 42.808594 139.972656 42.832031 139.957031 42.867188 C 139.941406 42.90625 139.910156 42.960938 139.859375 43.019531 C 139.765625 43.136719 139.585938 43.273438 139.347656 43.316406 C 139.113281 43.355469 138.894531 43.289062 138.765625 43.210938 C 138.703125 43.171875 138.652344 43.132812 138.625 43.101562 C 138.597656 43.074219 138.582031 43.054688 138.582031 43.054688 Z M 138.582031 43.054688 " fill-opacity="1" fill-rule="nonzero"/></g></g></g><g clip-path="url(#e18b8b8a62)"><g clip-path="url(#df107d90e7)"><g clip-path="url(#9bc1c596b6)"><path fill="#c6302c" d="M 171.234375 81.039062 C 171.234375 81.039062 171.320312 80.882812 171.441406 80.566406 C 171.566406 80.25 171.71875 79.773438 171.886719 79.148438 C 172.050781 78.527344 172.234375 77.757812 172.414062 76.855469 C 172.589844 75.957031 172.769531 74.925781 172.972656 73.789062 C 173.769531 69.238281 174.699219 62.910156 175.972656 55.96875 C 176.28125 54.234375 176.578125 52.539062 176.867188 50.902344 C 176.9375 50.492188 177.007812 50.082031 177.074219 49.679688 C 177.144531 49.28125 177.207031 48.886719 177.234375 48.496094 C 177.292969 47.71875 177.171875 46.964844 176.765625 46.347656 C 176.378906 45.71875 175.859375 45.1875 175.332031 44.703125 C 174.800781 44.222656 174.253906 43.777344 173.75 43.3125 C 172.75 42.390625 171.84375 41.496094 171.058594 40.640625 C 169.519531 38.910156 168.308594 37.488281 167.457031 36.511719 C 166.613281 35.535156 166.144531 34.992188 166.144531 34.992188 C 166.144531 34.992188 168.078125 37.101562 171.203125 40.507812 C 172.003906 41.339844 172.917969 42.210938 173.933594 43.113281 C 174.4375 43.5625 174.988281 43.996094 175.535156 44.480469 C 176.078125 44.964844 176.625 45.503906 177.050781 46.171875 C 177.261719 46.5 177.433594 46.890625 177.515625 47.292969 C 177.601562 47.695312 177.617188 48.109375 177.589844 48.519531 C 177.566406 48.929688 177.503906 49.335938 177.441406 49.742188 C 177.375 50.144531 177.308594 50.550781 177.238281 50.957031 C 176.957031 52.597656 176.664062 54.296875 176.363281 56.039062 C 175.089844 62.980469 174.0625 69.285156 173.164062 73.824219 C 172.941406 74.960938 172.738281 75.984375 172.535156 76.882812 C 172.332031 77.78125 172.128906 78.546875 171.945312 79.167969 C 171.761719 79.785156 171.589844 80.261719 171.457031 80.574219 C 171.324219 80.886719 171.234375 81.039062 171.234375 81.039062 Z M 171.234375 81.039062 " fill-opacity="1" fill-rule="nonzero"/></g></g></g><g clip-path="url(#7f0ced5a7f)"><g clip-path="url(#ab86ca973c)"><g clip-path="url(#c30b8ecbfd)"><path fill="#c6302c" d="M 163.34375 88.058594 C 163.34375 88.058594 163.019531 88.109375 162.429688 88.207031 C 161.839844 88.296875 160.988281 88.449219 159.914062 88.507812 C 159.375 88.539062 158.78125 88.53125 158.148438 88.445312 C 157.515625 88.363281 156.847656 88.164062 156.191406 87.878906 C 155.535156 87.59375 154.882812 87.230469 154.207031 86.875 C 153.527344 86.519531 152.820312 86.15625 152.097656 85.78125 C 149.214844 84.261719 146.664062 82.78125 144.835938 81.679688 C 143.007812 80.578125 141.898438 79.859375 141.898438 79.859375 C 141.898438 79.859375 143.058594 80.488281 144.933594 81.507812 C 146.808594 82.523438 149.40625 83.914062 152.28125 85.433594 C 153.003906 85.8125 153.707031 86.183594 154.382812 86.542969 C 155.0625 86.910156 155.699219 87.28125 156.328125 87.574219 C 156.957031 87.871094 157.582031 88.078125 158.191406 88.179688 C 158.796875 88.285156 159.378906 88.316406 159.90625 88.3125 C 160.96875 88.300781 161.828125 88.199219 162.421875 88.144531 C 163.015625 88.089844 163.34375 88.058594 163.34375 88.058594 Z M 163.34375 88.058594 " fill-opacity="1" fill-rule="nonzero"/></g></g></g><g clip-path="url(#3a591026ed)"><g clip-path="url(#16ad6a3b1a)"><g clip-path="url(#4674baaa06)"><path fill="#c6302c" d="M 146.867188 51.074219 C 146.867188 51.074219 147.175781 50.902344 147.730469 50.589844 C 148.285156 50.277344 149.085938 49.820312 150.058594 49.234375 C 152.007812 48.070312 154.664062 46.386719 157.460938 44.359375 C 158.855469 43.347656 160.019531 42.199219 161.023438 41.097656 C 162.027344 39.996094 162.878906 38.953125 163.609375 38.089844 C 164.339844 37.226562 164.875 36.488281 165.179688 35.9375 C 165.335938 35.664062 165.4375 35.441406 165.503906 35.289062 C 165.570312 35.136719 165.601562 35.054688 165.601562 35.054688 C 165.601562 35.054688 165.574219 35.136719 165.519531 35.296875 C 165.460938 35.453125 165.375 35.683594 165.234375 35.964844 C 164.960938 36.539062 164.460938 37.316406 163.765625 38.210938 C 163.078125 39.109375 162.265625 40.183594 161.28125 41.324219 C 160.300781 42.457031 159.121094 43.648438 157.707031 44.675781 C 154.890625 46.722656 152.171875 48.324219 150.164062 49.40625 C 149.160156 49.949219 148.335938 50.363281 147.761719 50.644531 C 147.1875 50.921875 146.867188 51.074219 146.867188 51.074219 Z M 146.867188 51.074219 " fill-opacity="1" fill-rule="nonzero"/></g></g></g><g clip-path="url(#052f4a64e6)"><g clip-path="url(#4a2eb57f23)"><g clip-path="url(#a065249af7)"><g mask="url(#1fd7f2a0a8)"><g transform="matrix(1, 0, 0, 1, 152, 46)"><g clip-path="url(#ceb7ebb747)"><g clip-path="url(#48120dbec3)"><g clip-path="url(#5712ea8c37)"><g clip-path="url(#301c6ea76f)"><path fill="#f55d4e" d="M 7.242188 8.191406 C 6.34375 10.152344 6.535156 12.441406 7.023438 14.542969 C 7.515625 16.648438 8.289062 18.691406 8.519531 20.839844 C 8.671875 22.292969 8.714844 24.039062 9.964844 24.796875 C 10.398438 25.058594 10.921875 25.148438 11.429688 25.117188 C 12.570312 25.046875 13.609375 24.390625 14.378906 23.542969 C 15.148438 22.699219 15.6875 21.671875 16.210938 20.65625 C 16.992188 19.136719 17.777344 17.558594 17.863281 15.851562 C 17.957031 14.03125 17.238281 12.152344 17.78125 10.410156 C 18.097656 9.394531 18.820312 8.527344 19.050781 7.484375 C 19.316406 6.269531 18.824219 4.941406 17.890625 4.113281 C 14.53125 1.144531 8.769531 4.84375 7.242188 8.191406 Z M 7.242188 8.191406 " fill-opacity="1" fill-rule="nonzero"/></g></g></g></g></g></g></g></g></g><g clip-path="url(#04b431539b)"><g clip-path="url(#0a1d135409)"><g clip-path="url(#838381da05)"><path fill="#c6302c" d="M 158.371094 67.515625 C 158.371094 67.515625 158.378906 67.261719 158.394531 66.804688 C 158.402344 66.574219 158.414062 66.292969 158.445312 65.96875 C 158.476562 65.644531 158.5 65.269531 158.566406 64.863281 C 158.59375 64.660156 158.625 64.445312 158.65625 64.222656 C 158.6875 64 158.738281 63.773438 158.78125 63.53125 C 158.867188 63.054688 158.996094 62.550781 159.125 62.019531 C 159.410156 60.96875 159.792969 59.824219 160.296875 58.664062 C 160.8125 57.511719 161.398438 56.457031 161.980469 55.535156 C 162.285156 55.078125 162.566406 54.644531 162.863281 54.261719 C 163.011719 54.066406 163.144531 53.875 163.289062 53.703125 C 163.429688 53.527344 163.566406 53.359375 163.699219 53.203125 C 163.957031 52.878906 164.214844 52.609375 164.433594 52.367188 C 164.652344 52.125 164.851562 51.925781 165.015625 51.765625 C 165.34375 51.445312 165.527344 51.265625 165.527344 51.265625 C 165.527344 51.265625 165.363281 51.464844 165.074219 51.816406 C 164.925781 51.992188 164.746094 52.207031 164.550781 52.46875 C 164.355469 52.726562 164.121094 53.011719 163.890625 53.351562 C 163.773438 53.515625 163.648438 53.691406 163.519531 53.871094 C 163.394531 54.054688 163.273438 54.25 163.140625 54.449219 C 162.867188 54.847656 162.613281 55.289062 162.332031 55.75 C 161.796875 56.683594 161.25 57.730469 160.746094 58.863281 C 160.25 60 159.847656 61.109375 159.519531 62.136719 C 159.371094 62.652344 159.21875 63.140625 159.109375 63.605469 C 159.050781 63.839844 158.988281 64.0625 158.941406 64.28125 C 158.894531 64.496094 158.847656 64.707031 158.804688 64.90625 C 158.710938 65.304688 158.660156 65.667969 158.601562 65.988281 C 158.539062 66.308594 158.5 66.585938 158.472656 66.8125 C 158.40625 67.265625 158.371094 67.515625 158.371094 67.515625 Z M 158.371094 67.515625 " fill-opacity="1" fill-rule="nonzero"/></g></g></g><g clip-path="url(#d657be650f)"><g clip-path="url(#2a41be7e58)"><g clip-path="url(#7372e03e32)"><path fill="#c6302c" d="M 159.507812 72.277344 C 159.507812 72.277344 159.5625 72.101562 159.65625 71.78125 C 159.757812 71.464844 159.886719 71.003906 160.042969 70.433594 C 160.203125 69.863281 160.371094 69.183594 160.546875 68.421875 C 160.71875 67.664062 160.890625 66.824219 161.046875 65.941406 C 161.203125 65.058594 161.324219 64.210938 161.425781 63.441406 C 161.519531 62.667969 161.59375 61.96875 161.640625 61.378906 C 161.6875 60.789062 161.722656 60.308594 161.738281 59.976562 C 161.757812 59.648438 161.765625 59.460938 161.765625 59.460938 C 161.765625 59.460938 161.785156 59.644531 161.8125 59.976562 C 161.84375 60.308594 161.871094 60.789062 161.882812 61.382812 C 161.898438 61.980469 161.886719 62.691406 161.835938 63.476562 C 161.78125 64.265625 161.683594 65.128906 161.527344 66.027344 C 161.367188 66.925781 161.164062 67.769531 160.945312 68.527344 C 160.722656 69.285156 160.492188 69.957031 160.277344 70.511719 C 160.058594 71.066406 159.871094 71.507812 159.726562 71.808594 C 159.585938 72.109375 159.507812 72.277344 159.507812 72.277344 Z M 159.507812 72.277344 " fill-opacity="1" fill-rule="nonzero"/></g></g></g><path fill="#fcfaef" d="M 18.46875 47.101562 C 16.039062 47.101562 14.230469 46.566406 13.042969 45.492188 C 11.886719 44.386719 11.308594 42.707031 11.308594 40.460938 L 11.308594 24.902344 L 13.585938 24.902344 L 13.585938 40.460938 C 13.585938 42.097656 13.984375 43.304688 14.777344 44.078125 C 15.570312 44.871094 16.800781 45.269531 18.46875 45.269531 L 25.605469 45.269531 L 25.605469 47.101562 Z M 18.46875 47.101562 " fill-opacity="1" fill-rule="nonzero"/><path fill="#fcfaef" d="M 40.992188 44.402344 C 40.992188 44.78125 41.050781 45.105469 41.167969 45.367188 C 41.316406 45.597656 41.578125 45.871094 41.960938 46.1875 L 40.546875 47.449219 C 40.019531 47.152344 39.621094 46.8125 39.359375 46.433594 C 39.109375 46.054688 38.960938 45.558594 38.910156 44.945312 C 38.367188 45.757812 37.625 46.375 36.683594 46.804688 C 35.722656 47.234375 34.648438 47.449219 33.460938 47.449219 C 31.859375 47.449219 30.628906 47.078125 29.769531 46.335938 C 28.894531 45.574219 28.457031 44.484375 28.457031 43.0625 C 28.457031 41.757812 28.910156 40.734375 29.816406 39.992188 C 30.726562 39.246094 32.097656 38.777344 33.929688 38.578125 L 36.410156 38.28125 C 37.121094 38.199219 37.640625 38.089844 37.96875 37.960938 C 38.332031 37.84375 38.574219 37.671875 38.6875 37.4375 C 38.820312 37.175781 38.878906 36.820312 38.863281 36.375 C 38.664062 34.40625 37.285156 33.425781 34.722656 33.425781 C 33.78125 33.425781 32.972656 33.589844 32.296875 33.921875 C 31.617188 34.199219 31.039062 34.671875 30.5625 35.332031 L 29.097656 34.265625 C 30.089844 32.648438 31.964844 31.839844 34.722656 31.839844 C 36.757812 31.839844 38.300781 32.277344 39.359375 33.152344 C 40.449219 34.011719 40.992188 35.257812 40.992188 36.894531 Z M 33.929688 45.789062 C 35.417969 45.789062 36.617188 45.410156 37.523438 44.648438 C 38.433594 43.890625 38.886719 42.882812 38.886719 41.625 L 38.886719 39.074219 C 38.640625 39.257812 38.332031 39.40625 37.96875 39.519531 C 37.605469 39.601562 37.113281 39.675781 36.484375 39.742188 L 34.128906 39.992188 C 32.921875 40.140625 32.007812 40.476562 31.378906 41.007812 C 30.769531 41.519531 30.460938 42.195312 30.460938 43.039062 C 30.460938 44.871094 31.617188 45.789062 33.929688 45.789062 Z M 33.929688 45.789062 " fill-opacity="1" fill-rule="evenodd"/><path fill="#fcfaef" d="M 51.523438 47.449219 C 49.460938 47.449219 47.867188 46.96875 46.742188 46.011719 C 45.617188 45.070312 45.058594 43.699219 45.058594 41.898438 L 45.058594 37.390625 C 45.058594 35.636719 45.628906 34.273438 46.765625 33.300781 C 47.90625 32.324219 49.507812 31.839844 51.574219 31.839844 C 52.8125 31.839844 53.886719 32.046875 54.796875 32.457031 C 55.703125 32.855469 56.488281 33.464844 57.148438 34.292969 L 55.6875 35.53125 C 55.09375 34.804688 54.480469 34.292969 53.855469 33.996094 C 53.210938 33.695312 52.449219 33.546875 51.574219 33.546875 C 50.1875 33.546875 49.105469 33.886719 48.328125 34.5625 C 47.566406 35.242188 47.1875 36.183594 47.1875 37.390625 L 47.1875 41.898438 C 47.1875 43.121094 47.558594 44.070312 48.304688 44.75 C 49.0625 45.410156 50.136719 45.738281 51.523438 45.738281 C 52.484375 45.738281 53.308594 45.582031 54.003906 45.269531 C 54.695312 44.957031 55.289062 44.46875 55.785156 43.808594 L 57.25 45.046875 C 56.636719 45.871094 55.859375 46.484375 54.917969 46.878906 C 53.996094 47.257812 52.863281 47.449219 51.523438 47.449219 Z M 51.523438 47.449219 " fill-opacity="1" fill-rule="nonzero"/><path fill="#fcfaef" d="M 63.023438 33.921875 L 63.023438 42.792969 C 63.023438 44.675781 63.847656 45.617188 65.5 45.617188 L 67.308594 45.617188 L 67.308594 47.300781 L 65.5 47.300781 C 63.914062 47.300781 62.75 46.9375 62.007812 46.210938 C 61.277344 45.46875 60.914062 44.328125 60.914062 42.792969 L 60.914062 28.742188 C 60.914062 28.363281 60.839844 28.054688 60.691406 27.824219 C 60.5625 27.558594 60.304688 27.269531 59.925781 26.957031 L 61.363281 25.695312 C 61.988281 26.058594 62.417969 26.46875 62.648438 26.933594 C 62.898438 27.378906 63.023438 27.996094 63.023438 28.789062 L 63.023438 32.1875 L 67.308594 32.1875 L 67.308594 33.921875 Z M 63.023438 33.921875 " fill-opacity="1" fill-rule="nonzero"/><path fill="#fcfaef" d="M 76.652344 47.449219 C 74.667969 47.449219 73.117188 46.953125 71.992188 45.960938 C 70.886719 44.9375 70.332031 43.519531 70.332031 41.699219 L 70.332031 37.585938 C 70.332031 35.769531 70.886719 34.367188 71.992188 33.375 C 73.117188 32.351562 74.667969 31.839844 76.652344 31.839844 C 78.632812 31.839844 80.175781 32.351562 81.285156 33.375 C 82.40625 34.367188 82.96875 35.769531 82.96875 37.585938 L 82.96875 41.699219 C 82.96875 43.519531 82.40625 44.9375 81.285156 45.960938 C 80.175781 46.953125 78.632812 47.449219 76.652344 47.449219 Z M 76.652344 45.738281 C 77.988281 45.738281 79.011719 45.394531 79.722656 44.699219 C 80.464844 43.988281 80.839844 42.988281 80.839844 41.699219 L 80.839844 37.585938 C 80.839844 36.300781 80.464844 35.308594 79.722656 34.613281 C 79.011719 33.902344 77.988281 33.546875 76.652344 33.546875 C 75.3125 33.546875 74.273438 33.902344 73.527344 34.613281 C 72.816406 35.308594 72.460938 36.300781 72.460938 37.585938 L 72.460938 41.699219 C 72.460938 42.988281 72.816406 43.988281 73.527344 44.699219 C 74.273438 45.394531 75.3125 45.738281 76.652344 45.738281 Z M 76.652344 45.738281 " fill-opacity="1" fill-rule="evenodd"/><path fill="#fcfaef" d="M 76.925781 67.976562 C 74.808594 67.976562 73.164062 67.441406 71.988281 66.375 C 70.816406 65.304688 70.230469 63.808594 70.230469 61.886719 L 70.230469 57.527344 C 70.230469 55.585938 70.816406 54.089844 71.988281 53.039062 C 73.164062 51.972656 74.808594 51.4375 76.925781 51.4375 C 79.023438 51.4375 80.660156 51.972656 81.832031 53.039062 C 83.003906 54.089844 83.589844 55.585938 83.589844 57.527344 L 83.589844 61.886719 C 83.589844 63.808594 83.003906 65.304688 81.832031 66.375 C 80.660156 67.441406 79.023438 67.976562 76.925781 67.976562 Z M 76.925781 66.136719 C 78.324219 66.136719 79.410156 65.769531 80.179688 65.035156 C 80.964844 64.300781 81.359375 63.25 81.359375 61.886719 L 81.359375 57.527344 C 81.359375 56.144531 80.964844 55.085938 80.179688 54.351562 C 79.410156 53.617188 78.324219 53.25 76.925781 53.25 C 75.507812 53.25 74.40625 53.617188 73.617188 54.351562 C 72.863281 55.085938 72.488281 56.144531 72.488281 57.527344 C 72.488281 58.894531 72.488281 61.886719 72.488281 61.886719 C 72.488281 63.25 72.863281 64.300781 73.617188 65.035156 C 74.40625 65.769531 75.507812 66.136719 76.925781 66.136719 Z M 76.925781 66.136719 " fill-opacity="1" fill-rule="evenodd"/><path fill="#fcfaef" d="M 87.476562 52.175781 L 89.523438 52.175781 L 92.644531 66.007812 C 93.171875 65.882812 93.546875 65.5 93.773438 64.851562 L 97.5 53.617188 L 101.253906 64.851562 C 101.378906 65.203125 101.519531 65.464844 101.675781 65.640625 C 101.851562 65.832031 102.070312 65.945312 102.332031 65.980469 L 105.480469 52.175781 L 107.476562 52.175781 L 103.878906 67.976562 L 102.910156 67.976562 C 102.085938 67.976562 101.421875 67.789062 100.914062 67.421875 C 100.425781 67.039062 100.054688 66.460938 99.8125 65.691406 L 97.5 58.421875 L 95.164062 65.691406 C 94.902344 66.511719 94.535156 67.101562 94.0625 67.449219 C 93.589844 67.800781 92.933594 67.976562 92.09375 67.976562 L 91.125 67.976562 Z M 87.476562 52.175781 " fill-opacity="1" fill-rule="nonzero"/><g clip-path="url(#f5b8047920)"><path fill="#fcfaef" d="M 79.390625 78.472656 C 78.628906 78.472656 62.460938 73.878906 62.199219 73.222656 C 61.414062 72.832031 60.886719 72.042969 60.597656 70.074219 C 60.335938 68.078125 60.597656 51.859375 60.597656 51.859375 C 60.597656 51.4375 60.519531 51.097656 60.363281 50.835938 C 60.238281 50.574219 59.976562 50.285156 59.574219 49.96875 L 61.046875 48.628906 C 61.746094 49.015625 62.21875 49.453125 62.460938 49.941406 C 62.726562 50.414062 62.855469 51.070312 62.855469 51.910156 L 63.40625 70.074219 C 63.40625 70.46875 63.667969 71.203125 63.667969 71.203125 C 63.667969 71.203125 64.0625 71.726562 64.324219 71.859375 C 64.589844 71.992188 79.261719 75.0625 80.046875 75.71875 C 80.835938 76.375 80.152344 78.472656 79.390625 78.472656 Z M 79.390625 78.472656 " fill-opacity="1" fill-rule="nonzero"/></g><path fill="#fcfaef" d="M 73.066406 73.808594 C 70.152344 73.808594 67.980469 73.164062 66.554688 71.875 C 65.167969 70.546875 64.472656 68.535156 64.472656 65.835938 L 64.472656 47.164062 L 67.210938 47.164062 L 67.210938 65.835938 C 67.210938 67.800781 67.683594 69.246094 68.636719 70.179688 C 69.589844 71.128906 71.066406 71.605469 73.066406 71.605469 L 81.632812 71.605469 L 81.632812 73.808594 Z M 73.066406 73.808594 " fill-opacity="1" fill-rule="nonzero"/><path fill="#fcfaef" d="M 45.597656 55.039062 C 45.597656 52.429688 46.289062 50.503906 47.671875 49.257812 C 49.070312 47.972656 51.199219 47.328125 54.058594 47.328125 L 62.949219 47.328125 L 62.949219 49.488281 L 54.058594 49.488281 C 52.082031 49.488281 50.617188 49.9375 49.65625 50.839844 C 48.714844 51.742188 48.246094 53.140625 48.246094 55.039062 L 48.246094 59.902344 L 61.078125 59.902344 L 61.078125 62.03125 L 48.246094 62.03125 L 48.246094 73.109375 L 45.597656 73.109375 Z M 45.597656 55.039062 " fill-opacity="1" fill-rule="nonzero"/></svg>